<svg width="3500" height="1000" viewBox="0 0 3500 1000" fill="none" xmlns="http://www.w3.org/2000/svg">
<path d="M1174.46 545.179C1189.1 559.39 1196.41 578.764 1196.41 603.317C1196.41 638.205 1183.08 665.324 1156.35 684.706C1129.66 704.088 1094.35 713.771 1050.42 713.771C1031.04 713.771 1011.55 712.277 991.975 709.251C972.371 706.256 954.376 701.284 938.02 694.389C927.678 690.099 920.254 684.162 915.734 676.647C911.215 669.101 909.07 661.249 909.269 653.059C909.491 644.87 911.866 637.439 916.386 630.774C920.906 624.109 926.919 619.359 934.465 616.563C942.011 613.767 950.507 614.081 959.999 617.521C978.078 624.415 994.319 629.157 1008.76 631.731C1023.19 634.328 1037.07 635.6 1050.43 635.6C1066.36 635.6 1077.77 633.34 1084.66 628.82C1091.56 624.3 1095.01 618.394 1095.01 611.055C1095.01 604.612 1092.75 599.671 1088.23 596.193C1083.71 592.776 1077.35 590.401 1069.16 589.099L997.46 578.113C970.739 573.394 950.086 563.481 935.453 548.397C920.791 533.343 913.475 513.509 913.475 488.964C913.475 467.016 919.833 447.948 932.542 431.814C945.229 415.657 962.688 403.055 984.858 394.016C1007.04 384.976 1032.54 380.456 1061.41 380.456C1080.79 380.456 1098.45 381.95 1114.38 384.976C1130.31 387.971 1146.05 392.943 1161.52 399.838C1170.6 404.128 1177.03 409.95 1180.91 417.266C1184.81 424.582 1186.3 432.235 1185.46 440.203C1184.58 448.17 1181.79 455.486 1177.04 462.151C1172.3 468.847 1166.05 473.481 1158.31 476.048C1150.56 478.614 1141.95 477.994 1132.46 474.102C1118.25 468.51 1105.54 464.411 1094.35 461.845C1083.17 459.248 1072.83 457.976 1063.34 457.976C1045.26 457.976 1032.65 460.351 1025.57 465.07C1018.45 469.812 1014.89 476.056 1014.89 483.801C1014.89 488.972 1016.95 493.492 1021.05 497.391C1025.12 501.26 1031.05 503.834 1038.79 505.128L1110.51 516.765C1138.5 521.507 1159.81 530.976 1174.46 545.179ZM1507.13 381.735C1488.63 381.735 1474.5 386.822 1464.81 396.934C1455.12 407.047 1450.29 421.372 1450.29 439.873V563.918C1450.29 582.449 1445.21 597.311 1435.09 608.496C1424.98 619.711 1412.18 625.304 1396.67 625.304C1382.89 625.304 1372.77 621.405 1366.31 613.667C1359.84 605.899 1356.62 594.285 1356.62 578.78V439.881C1356.62 421.38 1351.56 407.054 1341.45 396.942C1331.3 386.83 1317.21 381.743 1299.13 381.743C1280.6 381.743 1266.39 386.83 1256.47 396.942C1246.58 407.054 1241.64 421.38 1241.64 439.881V576.213C1241.64 606.78 1246.05 632.291 1254.86 652.737C1263.71 673.215 1276.93 688.498 1294.61 698.61C1312.27 708.723 1334.87 713.779 1362.44 713.779C1385.69 713.779 1405.83 708.072 1422.84 696.657C1434.79 688.659 1444.75 678.11 1452.99 665.317C1454.63 678.562 1459.25 689.31 1467.07 697.308C1476.98 707.42 1490.99 712.507 1509.07 712.507C1546.54 712.507 1565.26 693.125 1565.26 654.369V439.873C1565.26 421.372 1560.2 407.047 1550.09 396.934C1539.98 386.822 1525.66 381.735 1507.13 381.735ZM1962.24 457.976C1974.08 482.521 1980.01 512.245 1980.01 547.102C1980.01 581.139 1974.19 610.633 1962.58 635.608C1950.94 660.605 1934.56 679.872 1913.48 693.432C1892.35 706.992 1868.25 713.771 1841.11 713.771C1816.99 713.771 1795.26 707.758 1775.89 695.692C1761.76 686.905 1751.28 676.126 1744.25 663.463C1742.84 677.543 1738.36 688.943 1730.32 697.308C1720.63 707.42 1706.76 712.507 1688.68 712.507C1670.15 712.507 1656.05 707.42 1646.36 697.308C1636.67 687.196 1631.82 672.87 1631.82 654.369V302.3C1631.82 283.768 1636.67 269.443 1646.36 259.33C1656.05 249.218 1670.35 244.131 1689.3 244.131C1707.41 244.131 1721.51 249.218 1731.62 259.33C1741.73 269.443 1746.82 283.768 1746.82 302.3V425.678C1754.15 414.876 1764.13 405.438 1777.16 397.586C1796.11 386.171 1817.44 380.464 1841.11 380.464C1868.68 380.464 1892.81 387.243 1913.48 400.803C1934.14 414.363 1950.41 433.431 1962.24 457.976ZM1864.39 547.102C1864.39 518.259 1858.77 497.498 1847.58 484.781C1836.37 472.072 1822.16 465.713 1804.96 465.713C1792.89 465.713 1782.33 468.51 1773.29 474.102C1764.25 479.725 1757.25 488.428 1752.3 500.287C1747.36 512.123 1744.87 527.72 1744.87 547.094C1744.87 575.539 1750.46 596.108 1761.68 608.787C1772.86 621.496 1787.27 627.855 1804.95 627.855C1816.56 627.855 1826.78 625.174 1835.63 619.773C1844.44 614.403 1851.45 605.677 1856.62 593.611C1861.79 581.568 1864.39 566.086 1864.39 547.102ZM2330.13 477.358C2337.45 497.613 2341.12 520.412 2341.12 545.83C2341.12 554.02 2338.74 560.263 2334 564.561C2329.28 568.851 2321.94 571.027 2312.05 571.027H2128.07C2131.13 587.268 2136.81 600.023 2145.7 608.488C2159.29 621.397 2180.27 627.87 2208.69 627.87C2218.15 627.87 2229.03 626.798 2241.32 624.653C2253.58 622.508 2265.33 619.26 2276.52 614.962C2287.71 610.641 2297.4 609.906 2305.59 612.702C2313.78 615.498 2320.13 620.133 2324.65 626.576C2329.17 633.041 2331.75 640.702 2332.39 649.512C2333.04 658.353 2331.12 666.634 2326.57 674.372C2322.05 682.14 2314.62 688.184 2304.31 692.482C2289.64 699.377 2273.83 704.655 2256.82 708.301C2239.78 711.948 2222.67 713.779 2205.46 713.779C2166.7 713.779 2133.2 706.884 2105 693.125C2076.78 679.344 2055.15 659.962 2040.09 634.987C2025 610.013 2017.46 580.718 2017.46 547.102C2017.46 514.39 2024.66 485.547 2039.1 460.55C2053.53 435.576 2073.33 415.971 2098.53 401.761C2123.73 387.55 2152.49 380.464 2184.78 380.464C2208.45 380.464 2230.01 384.332 2249.38 392.077C2268.76 399.845 2285.22 410.923 2298.78 425.356C2312.36 439.781 2322.82 457.103 2330.13 477.358ZM2132.78 492.212C2129.95 499.107 2128.16 507.258 2126.95 516.114H2246.18C2245.51 504.163 2243.82 493.599 2240.35 485.432C2236.03 475.32 2229.68 467.774 2221.29 462.802C2212.9 457.861 2202.44 455.371 2189.96 455.371C2176.6 455.371 2164.99 458.505 2155.07 464.748C2145.15 470.999 2137.72 480.154 2132.78 492.212ZM2596.26 380.464C2569.56 381.314 2547.28 389.388 2529.4 404.672C2517.24 415.083 2508.47 428.129 2502.59 443.443V439.873C2502.59 421.372 2497.76 407.047 2488.08 396.934C2478.39 386.822 2464.71 381.735 2447.06 381.735C2428.95 381.735 2415.08 386.822 2405.39 396.934C2395.7 407.047 2390.84 421.372 2390.84 439.873V654.369C2390.84 672.87 2395.9 687.196 2406.04 697.308C2416.16 707.42 2430.67 712.507 2449.63 712.507C2468.59 712.507 2482.91 707.42 2492.6 697.308C2502.29 687.196 2507.12 672.87 2507.12 654.369V547.761C2507.12 527.107 2512.51 511.487 2523.28 500.923C2534.04 490.389 2550.62 484.03 2573.03 481.885L2588.53 480.583C2606.19 478.438 2618.25 472.953 2624.69 464.112C2631.16 455.302 2634.38 443.121 2634.38 427.616C2633.96 409.536 2630.63 397.049 2624.39 390.155C2618.13 383.26 2608.75 380.042 2596.26 380.464ZM2876.63 380.464C2849.94 381.314 2827.65 389.388 2809.77 404.672C2797.61 415.083 2788.84 428.129 2782.96 443.443V439.873C2782.96 421.372 2778.13 407.047 2768.45 396.934C2758.76 386.822 2745.08 381.735 2727.43 381.735C2709.32 381.735 2695.45 386.822 2685.76 396.934C2676.07 407.047 2671.22 421.372 2671.22 439.873V654.369C2671.22 672.87 2676.27 687.196 2686.42 697.308C2696.53 707.42 2711.04 712.507 2730.01 712.507C2748.96 712.507 2763.28 707.42 2772.97 697.308C2782.67 687.196 2787.49 672.87 2787.49 654.369V547.761C2787.49 527.107 2792.89 511.487 2803.65 500.923C2814.41 490.389 2830.99 484.03 2853.4 481.885L2868.9 480.583C2886.56 478.438 2898.62 472.953 2905.06 464.112C2911.53 455.302 2914.75 443.121 2914.75 427.616C2914.33 409.536 2911 397.049 2904.76 390.155C2898.5 383.26 2889.12 380.042 2876.63 380.464ZM3250 523.2V654.362C3250 672.862 3245.37 687.188 3236.13 697.301C3226.86 707.413 3213.84 712.5 3197.03 712.5C3179.37 712.5 3165.93 707.413 3156.67 697.301C3148.16 688.023 3143.76 675.023 3143.05 658.667C3140.37 666.787 3136.94 674.471 3131.81 681.167C3124.04 691.279 3113.93 699.246 3101.44 705.069C3088.92 710.891 3074.72 713.771 3058.82 713.771C3034.27 713.771 3012.51 709.137 2993.56 699.898C2974.61 690.636 2959.86 678.148 2949.3 662.413C2938.76 646.708 2933.48 628.744 2933.48 608.488C2933.48 585.238 2939.49 566.936 2951.56 553.576C2963.62 540.246 2983.11 530.639 3010.03 524.847C3036.95 519.025 3072.57 516.122 3116.95 516.122H3141.5V507.082C3141.5 491.147 3137.52 480.047 3129.55 473.803C3121.55 467.56 3108.11 464.426 3089.15 464.426C3078.39 464.426 3066.67 465.644 3053.95 467.989C3041.24 470.363 3026.72 474.569 3010.34 480.591C2998.72 484.911 2988.7 485.563 2980.31 482.537C2971.92 479.511 2965.68 474.454 2961.58 467.337C2957.48 460.244 2955.45 452.391 2955.45 443.78C2955.45 435.162 2958.13 426.773 2963.53 418.584C2968.9 410.394 2977.17 404.373 2988.39 400.474C3009.07 393.158 3028.22 387.986 3045.88 384.991C3063.54 381.965 3079.46 380.471 3093.67 380.471C3128.98 380.471 3158.16 385.642 3181.21 395.954C3204.23 406.296 3221.47 421.916 3232.88 442.792C3244.29 463.683 3250 490.488 3250 523.2ZM3141.5 581.99V569.732H3116.95C3100.15 569.732 3086.36 571.035 3075.6 573.601C3064.84 576.198 3056.87 579.845 3051.7 584.587C3046.53 589.329 3043.96 595.771 3043.96 603.969C3043.96 613.882 3047.38 622.048 3054.27 628.514C3061.17 634.98 3071.5 638.205 3085.29 638.205C3095.63 638.205 3105.01 635.83 3113.4 631.088C3121.79 626.369 3128.57 619.788 3133.74 611.4C3138.89 603.011 3141.5 593.205 3141.5 581.99Z" fill="url(#paint0_linear_1_2)"/>
<path d="M681.136 334.59L574.536 381.467C574.459 381.429 574.39 381.383 574.314 381.337L537.297 397.624L535.305 398.451L458.137 432.649L457.884 432.764C456.613 433.392 455.441 434.02 454.207 434.649C452.675 435.43 451.097 436.211 449.626 436.993C448.377 437.659 447.22 438.318 446.018 438.977C444.669 439.72 443.275 440.463 441.988 441.199C440.479 442.057 439.077 442.907 437.644 443.757C436.756 444.286 435.806 444.822 434.948 445.343C433.454 446.247 432.075 447.136 430.673 448.024C429.961 448.476 429.194 448.936 428.505 449.388C426.957 450.384 425.525 451.357 424.092 452.33C423.625 452.644 423.104 452.981 422.652 453.295C421.174 454.314 419.802 455.295 418.446 456.268C418.102 456.513 417.711 456.781 417.374 457.026C416.47 457.685 415.665 458.298 414.815 458.934C412.524 460.65 410.372 462.312 408.48 463.836C408.296 463.99 408.127 464.151 407.943 464.311C407.913 464.334 407.89 464.357 407.859 464.38C405.469 466.342 403.14 468.387 400.918 470.524C400.221 471.199 399.585 471.934 398.896 472.623C397.195 474.347 395.502 476.078 393.924 477.902C393.211 478.721 392.568 479.61 391.879 480.453C390.446 482.215 389.021 483.984 387.711 485.838C386.968 486.888 386.301 487.983 385.597 489.056C385.597 489.064 385.589 489.064 385.589 489.071C384.746 490.366 383.835 491.607 383.053 492.94C382.762 493.438 382.555 493.913 382.272 494.411V494.419C382.272 494.419 382.272 494.419 382.272 494.426C382.08 494.763 381.85 495.062 381.667 495.399C381.192 496.265 380.839 497.085 380.403 497.935C380.403 497.943 380.395 497.943 380.395 497.95C379.843 499.03 379.276 500.118 378.786 501.183C378.212 502.432 377.721 503.657 377.223 504.883C376.81 505.91 376.381 506.944 376.021 507.955C375.592 509.181 375.247 510.376 374.894 511.571C374.611 512.536 374.305 513.509 374.075 514.467C373.784 515.67 373.584 516.842 373.378 518.014C373.217 518.918 373.018 519.83 372.903 520.711C372.749 521.906 372.688 523.07 372.611 524.234C372.558 525.054 372.458 525.897 372.451 526.701C372.428 527.919 372.504 529.107 372.573 530.294C372.611 531.007 372.604 531.735 372.673 532.439C372.803 533.788 373.041 535.09 373.278 536.4C373.37 536.906 373.408 537.426 373.515 537.924C373.899 539.717 374.373 541.471 374.948 543.18C374.979 543.287 375.032 543.379 375.063 543.486C375.607 545.08 376.212 546.65 376.909 548.175C377.147 548.696 377.438 549.201 377.691 549.714C378.219 550.795 378.748 551.883 379.345 552.924C379.69 553.53 380.088 554.096 380.449 554.686C381.023 555.613 381.582 556.54 382.211 557.437C382.64 558.049 383.107 558.639 383.559 559.237C384.187 560.072 384.8 560.907 385.466 561.711C385.964 562.317 386.493 562.891 387.006 563.481C387.673 564.247 388.339 565.013 389.044 565.749C389.603 566.331 390.185 566.898 390.76 567.465C391.472 568.169 392.177 568.874 392.913 569.556C393.518 570.123 394.146 570.659 394.774 571.211C395.517 571.862 396.245 572.505 397.011 573.134C397.662 573.67 398.329 574.198 398.995 574.719C399.754 575.317 400.52 575.915 401.294 576.489C401.975 577.002 402.673 577.493 403.37 577.991C404.151 578.542 404.925 579.094 405.714 579.622C406.426 580.105 407.139 580.572 407.859 581.04C408.648 581.545 409.429 582.051 410.219 582.541C410.954 582.993 411.682 583.438 412.417 583.874C413.199 584.334 413.972 584.793 414.746 585.238C415.497 585.667 416.248 586.08 416.991 586.494C417.749 586.908 418.508 587.314 419.266 587.72C420.024 588.118 420.775 588.509 421.526 588.892C422.261 589.267 422.989 589.627 423.717 589.988C424.483 590.363 425.241 590.731 426 591.091C426.689 591.42 427.364 591.734 428.038 592.041C428.811 592.393 429.57 592.745 430.328 593.082C430.964 593.366 431.585 593.626 432.205 593.895C432.971 594.224 433.722 594.546 434.465 594.86C434.687 594.952 434.902 595.036 435.124 595.128C435.461 595.266 435.798 595.404 436.135 595.542C436.901 595.848 437.667 596.162 438.41 596.453C438.87 596.629 439.307 596.798 439.759 596.967C440.54 597.265 441.322 597.564 442.057 597.832C442.394 597.955 442.701 598.062 443.022 598.185C443.834 598.483 444.646 598.767 445.397 599.027C445.527 599.073 445.65 599.112 445.78 599.158C446.745 599.487 447.649 599.793 448.492 600.069C451.909 601.188 454.291 601.862 455.149 602.092H455.142L445.259 606.443C445.259 606.443 445.259 606.443 445.252 606.443L444.378 606.826L424.996 600.59L425.073 600.552C295.084 558.164 280.567 448.078 280.567 448.078C248.881 301.342 372.382 235.888 372.382 235.888L432.749 203.582C472.7 182.201 514.084 163.608 556.602 147.926L601.448 131.387C647.36 119.244 679.826 134.29 700.802 152.362C724.137 172.472 737.513 201.69 740.255 232.364C747.38 311.983 681.136 334.59 681.136 334.59ZM457.632 600.981L455.134 602.076L457.632 600.981Z" fill="url(#paint1_linear_1_2)"/>
<path d="M537.327 565.641C539.051 564.799 540.974 563.826 543.096 562.746C543.126 562.738 543.149 562.723 543.18 562.707C543.816 562.409 544.452 562.094 545.095 561.796L553.315 557.697C553.407 557.651 553.492 557.605 553.584 557.552L576.091 547.095L603.808 525.721C603.885 525.667 603.969 525.606 604.045 525.545C670.365 472.784 644.908 433.791 644.908 433.791C626.622 415.037 603.586 397.011 574.536 381.459L539.265 396.965L535.672 398.543L458.137 432.634L457.884 432.749C456.613 433.377 455.441 434.005 454.207 434.633C452.675 435.415 451.097 436.196 449.626 436.978C448.377 437.644 447.22 438.303 446.018 438.962C444.669 439.705 443.275 440.448 441.988 441.183C440.479 442.041 439.077 442.892 437.644 443.742C436.756 444.271 435.806 444.807 434.948 445.328C433.454 446.232 432.075 447.121 430.673 448.009C429.961 448.461 429.194 448.921 428.505 449.373C426.957 450.369 425.525 451.342 424.092 452.315C423.625 452.629 423.112 452.966 422.652 453.28C421.174 454.299 419.802 455.279 418.446 456.252C418.102 456.497 417.711 456.766 417.374 457.011C416.47 457.67 415.665 458.282 414.815 458.918C412.54 460.619 410.395 462.274 408.526 463.791C408.326 463.951 408.142 464.128 407.951 464.296C407.92 464.319 407.897 464.342 407.867 464.365C405.477 466.326 403.148 468.372 400.926 470.509C400.229 471.183 399.593 471.919 398.911 472.608C397.21 474.324 395.525 476.063 393.939 477.886C393.227 478.714 392.583 479.587 391.894 480.438C390.461 482.2 389.036 483.969 387.726 485.823C386.983 486.873 386.317 487.968 385.612 489.041C385.612 489.048 385.604 489.048 385.597 489.056C384.455 490.81 383.314 492.572 382.279 494.396V494.403V494.411C381.613 495.598 381.008 496.763 380.41 497.927C380.41 497.935 380.403 497.935 380.403 497.943C379.851 499.03 379.284 500.111 378.794 501.175C378.219 502.424 377.729 503.65 377.231 504.876C376.817 505.902 376.388 506.936 376.028 507.948C375.599 509.173 375.255 510.368 374.902 511.564C374.619 512.529 374.312 513.502 374.082 514.452C373.791 515.654 373.592 516.827 373.385 517.999C373.224 518.903 373.025 519.814 372.91 520.695C372.757 521.89 372.696 523.055 372.619 524.219C372.566 525.039 372.466 525.882 372.458 526.686C372.435 527.904 372.512 529.092 372.581 530.279C372.619 530.991 372.612 531.727 372.68 532.424C372.811 533.772 373.048 535.075 373.286 536.385C373.378 536.89 373.424 537.411 373.523 537.909C373.906 539.702 374.381 541.456 374.956 543.165C374.986 543.272 375.04 543.364 375.071 543.471C375.615 545.064 376.22 546.635 376.917 548.159C377.154 548.68 377.445 549.186 377.698 549.699C378.227 550.779 378.756 551.867 379.353 552.909C379.698 553.507 380.096 554.081 380.464 554.671C381.038 555.598 381.598 556.525 382.226 557.421C382.655 558.034 383.122 558.624 383.574 559.222C384.202 560.057 384.815 560.892 385.482 561.696C385.98 562.301 386.508 562.876 387.022 563.466C387.688 564.232 388.355 564.998 389.059 565.733C389.619 566.316 390.201 566.882 390.775 567.449C391.488 568.154 392.193 568.867 392.928 569.541C393.533 570.1 394.161 570.652 394.782 571.196C395.525 571.847 396.261 572.49 397.019 573.118C397.67 573.662 398.337 574.183 399.003 574.704C399.762 575.302 400.528 575.899 401.301 576.474C401.983 576.987 402.68 577.477 403.377 577.975C404.159 578.527 404.933 579.079 405.722 579.607C406.434 580.09 407.147 580.557 407.859 581.024C408.64 581.53 409.429 582.036 410.219 582.526C410.946 582.978 411.682 583.422 412.417 583.859C413.199 584.319 413.972 584.778 414.746 585.223C415.497 585.652 416.248 586.073 416.991 586.479C417.749 586.893 418.508 587.299 419.266 587.705C420.024 588.103 420.775 588.501 421.526 588.877C422.261 589.252 422.989 589.612 423.717 589.972C424.483 590.348 425.241 590.715 426 591.075C426.689 591.405 427.364 591.719 428.038 592.025C428.804 592.378 429.578 592.73 430.328 593.067C430.964 593.351 431.585 593.619 432.205 593.879C432.964 594.209 433.73 594.538 434.465 594.845C434.687 594.936 434.902 595.021 435.124 595.113C435.461 595.251 435.798 595.388 436.135 595.526C436.901 595.833 437.675 596.147 438.41 596.438C438.87 596.614 439.307 596.783 439.759 596.951C440.54 597.25 441.322 597.549 442.057 597.817C442.394 597.94 442.701 598.047 443.022 598.169C443.834 598.46 444.646 598.752 445.397 599.012C445.527 599.058 445.65 599.096 445.78 599.142C446.745 599.472 447.649 599.778 448.492 600.054C451.909 601.172 454.291 601.847 455.149 602.076H455.157L457.654 600.981L473.574 593.987L472.402 594.5L527.82 570.131C527.843 570.123 528.012 570.046 528.272 569.931L532.953 567.871C533.198 567.748 533.428 567.633 533.673 567.511C533.535 567.58 533.405 567.649 533.275 567.717L535.558 566.576C536.124 566.262 536.722 565.948 537.327 565.641Z" fill="#3C67C3"/>
<path d="M714.668 582.357L715.105 582.725C715.105 582.725 714.699 569.74 709.773 549.722C708.631 543.724 705.138 528.754 696.336 510.123C690.276 496.211 682.232 481.242 671.637 466.096V466.089L670.771 464.871C670.327 464.25 669.89 463.622 669.438 463.001L669.316 462.833L669.255 462.749C666.711 459.232 664.03 455.708 661.195 452.192L661.142 452.33L661.126 452.307C661.149 452.276 661.195 452.2 661.195 452.192C660.514 451.342 659.755 450.499 659.058 449.656L658.024 448.331L657.924 448.316C653.856 443.451 649.589 438.602 644.908 433.806C644.908 433.806 670.365 472.8 604.046 525.56C604.007 525.591 603.969 525.621 603.931 525.652L603.808 525.728C595.787 531.436 588.019 536.622 580.711 541.234C571.947 547.14 562.853 552.679 553.584 557.567L537.902 565.396L532.601 568.024C530.532 569.004 473.551 593.994 473.551 593.994L457.632 600.996L455.134 602.092C455.134 602.092 455.134 602.092 455.126 602.092H455.119L445.236 606.443C445.236 606.443 445.236 606.443 445.229 606.443L444.355 606.826L309.655 666.06C309.655 666.06 243.412 688.667 250.536 768.278C253.286 798.952 266.654 828.171 289.989 848.28C310.972 866.36 343.431 881.398 389.351 869.256L434.197 852.716C476.73 837.027 518.137 818.418 558.111 797.022L618.41 764.762C618.425 764.739 725.049 708.148 714.668 582.357Z" fill="url(#paint2_linear_1_2)"/>
<defs>
<linearGradient id="paint0_linear_1_2" x1="909.253" y1="478.952" x2="3250" y2="478.952" gradientUnits="userSpaceOnUse">
<stop stop-color="#007FFF"/>
<stop offset="1" stop-color="#1DD8FF"/>
</linearGradient>
<linearGradient id="paint1_linear_1_2" x1="773.678" y1="44.237" x2="307.16" y2="524.296" gradientUnits="userSpaceOnUse">
<stop stop-color="#1C5BEB"/>
<stop offset="1" stop-color="#71ECF2"/>
</linearGradient>
<linearGradient id="paint2_linear_1_2" x1="201.206" y1="951.982" x2="693.574" y2="506.39" gradientUnits="userSpaceOnUse">
<stop stop-color="#1C5BEB"/>
<stop offset="1" stop-color="#71ECF2"/>
</linearGradient>
</defs>
</svg>